# xmcd CD database file
#
# Track frame offsets:
#	150
#	16498
#	31509
#	45508
#	64577
#	77075
#	89599
#	103538
#	118255
#	136787
#	152317
#	163754
#	174927
#	189345
#	201802
#
# Disc length: 2877 seconds
#
# Revision: 0
# Processed by: cddbd v1.5.2PL0 Copyright (c) Steve Scherf et al.
# Submitted via: jetAudio 7
#
DISCID=b00b3b0f
DTITLE=Pista Sertaneja - Sertaneja Remix
DYEAR=1900
DGENRE=Remix
TTITLE0=Amo Noite e Dia
TTITLE1=Meteoro
TTITLE2=Paga Pau
TTITLE3=Inventor dos Amores
TTITLE4=Fugidinha
TTITLE5=Tchau, Tchau
TTITLE6=Quatro Estações
TTITLE7=Sonho Bom
TTITLE8=Que se Dane o Mundo
TTITLE9=Chora
TTITLE10=Tô Vendendo Beijo
TTITLE11=Baladeira
TTITLE12=Usou e Abusou
TTITLE13=Top de Verão
TTITLE14=Cachaceiro
EXTD=
EXTT0=
EXTT1=
EXTT2=
EXTT3=
EXTT4=
EXTT5=
EXTT6=
EXTT7=
EXTT8=
EXTT9=
EXTT10=
EXTT11=
EXTT12=
EXTT13=
EXTT14=
PLAYORDER=
